<svg width="1200" height="360" viewBox="0 0 1200 360" fill="none" xmlns="http://www.w3.org/2000/svg">
<g clip-path="url(#clip0_2743_3419)">
<path d="M100 275V85C100 69 110 58 125 58C135 58 142 62 149 71L286 231V85C286 69 296 58 311 58C326 58 336 69 336 85V275C336 291 326 302 311 302C301 302 293 298 286 289L150 129V275C150 291 140 302 125 302C110 302 100 291 100 275Z" fill="#2B1F1A"/>
<path d="M794.071 52.4091C799.623 55.6552 804.729 60.3515 806.79 66.5341C806.88 68.3356 806.912 70.1403 806.91 71.9441C806.911 73.0673 806.913 74.1905 806.914 75.3477C806.909 77.197 806.909 77.197 806.903 79.0837C806.903 80.3814 806.903 81.679 806.904 83.016C806.904 86.5756 806.898 90.1353 806.891 93.6949C806.885 97.4145 806.884 101.134 806.883 104.854C806.88 111.898 806.872 118.942 806.862 125.986C806.85 134.005 806.845 142.025 806.84 150.044C806.83 166.541 806.812 183.037 806.79 199.534C808.52 198.129 810.249 196.723 811.977 195.315C813.422 194.141 813.422 194.141 814.895 192.942C817.589 190.701 820.202 188.397 822.79 186.034C826.186 182.939 829.651 179.983 833.227 177.097C837.031 174.021 840.69 170.847 844.29 167.534C848.759 163.42 853.38 159.563 858.106 155.749C860.737 153.578 863.269 151.332 865.79 149.034C870.962 144.328 876.342 139.915 881.79 135.534C882.729 134.772 883.669 134.01 884.637 133.226C892.39 126.967 896.62 125.641 906.79 126.534C910.29 128.222 910.29 128.222 912.79 130.534C914.182 131.71 914.182 131.71 915.602 132.909C918.214 136.043 918.561 137.487 918.79 141.534C918.84 142.324 918.89 143.115 918.942 143.929C919.142 149.26 918.86 152.981 915.79 157.534C911.969 161.547 907.859 165.173 903.665 168.784C903 169.358 902.336 169.933 901.651 170.524C897.061 174.477 892.397 178.329 887.688 182.14C883.392 185.688 879.197 189.351 875.003 193.019C865.248 201.534 865.248 201.534 862.79 201.534C868.728 209.114 874.935 216.432 881.225 223.72C884.252 227.23 887.265 230.753 890.28 234.274C892.825 237.245 895.374 240.213 897.93 243.175C903.009 249.066 908.026 254.981 912.844 261.089C915.774 264.771 918.794 268.378 921.809 271.991C927.311 279.056 927.863 284.653 926.79 293.534C924.549 299.555 920.299 303.912 914.465 306.608C911.666 307.577 909.432 307.899 906.477 307.972C905.594 308.012 904.711 308.052 903.801 308.093C896.119 306.668 891.064 301.153 886.29 295.347C885.728 294.681 885.166 294.015 884.587 293.33C880.92 288.966 877.339 284.535 873.813 280.058C871.362 277 868.831 274.017 866.29 271.034C863.063 267.245 859.88 263.436 856.79 259.534C853.716 255.657 850.557 251.865 847.352 248.097C843.755 243.858 840.159 239.619 836.602 235.347C835.866 234.466 835.13 233.586 834.372 232.679C832.79 230.534 832.79 230.534 832.79 228.534C829.129 230.588 826.166 232.86 823.102 235.722C818.14 240.35 818.14 240.35 815.262 241.861C811.954 243.821 810.03 245.379 807.79 248.534C806.02 255.492 806.662 262.983 806.852 270.097C806.893 273.038 806.92 275.979 806.932 278.921C806.944 280.744 806.974 282.568 807.025 284.39C807.129 291.282 806.057 295.976 801.352 301.284C794.784 307.051 790.444 307.914 781.696 307.808C775.391 307.214 771.992 302.938 768.087 298.413C764.532 293.263 764.497 288.493 764.509 282.452C764.503 281.535 764.497 280.618 764.491 279.674C764.473 276.601 764.47 273.528 764.467 270.455C764.458 268.252 764.448 266.049 764.437 263.846C764.411 257.861 764.398 251.875 764.389 245.889C764.383 242.149 764.375 238.409 764.366 234.669C764.342 224.306 764.321 213.944 764.315 203.581C764.314 202.918 764.314 202.255 764.313 201.572C764.313 200.908 764.312 200.244 764.312 199.559C764.311 198.213 764.31 196.867 764.309 195.521C764.309 194.853 764.308 194.186 764.308 193.498C764.3 182.682 764.265 171.867 764.218 161.052C764.171 149.938 764.147 138.824 764.144 127.71C764.142 121.474 764.13 115.238 764.094 109.002C764.061 103.135 764.057 97.2682 764.074 91.401C764.076 89.2503 764.067 87.0997 764.047 84.9492C763.877 65.3 763.877 65.3 769.252 58.9817C769.759 58.504 770.267 58.0263 770.79 57.5341C771.635 56.7298 772.481 55.9254 773.352 55.0966C779.608 51.0867 786.969 49.6853 794.071 52.4091Z" fill="#34251D"/>
<path d="M490 291C537.496 291 576 252.496 576 205C576 157.504 537.496 119 490 119C442.504 119 404 157.504 404 205C404 252.496 442.504 291 490 291Z" stroke="#C65A3A" stroke-width="34"/>
<path d="M620 291C667.496 291 706 252.496 706 205C706 157.504 667.496 119 620 119C572.504 119 534 157.504 534 205C534 252.496 572.504 291 620 291Z" stroke="#F2B27A" stroke-width="34"/>
<path d="M555 182.002C555 182.002 553.526 172.5 543.5 161C533.474 149.5 530 149 530 149C530 149 550 123.502 555 125.502C560 127.502 571.5 141.5 577.5 151.002C583.5 160.505 555 182.002 555 182.002Z" fill="#C65A3A"/>
</g>
<defs>
<clipPath id="clip0_2743_3419">
<rect width="1200" height="360" fill="white"/>
</clipPath>
</defs>
</svg>
